<?xml version="1.0" encoding="UTF-8" standalone="no"?>
<svg
   xmlns:dc="http://purl.org/dc/elements/1.1/"
   xmlns:cc="http://creativecommons.org/ns#"
   xmlns:rdf="http://www.w3.org/1999/02/22-rdf-syntax-ns#"
   xmlns:svg="http://www.w3.org/2000/svg"
   xmlns="http://www.w3.org/2000/svg"
   xmlns:sodipodi="http://sodipodi.sourceforge.net/DTD/sodipodi-0.dtd"
   xmlns:inkscape="http://www.inkscape.org/namespaces/inkscape"
   height="1000"
   width="1000"
   id="svg3404"
   version="1.1"
   inkscape:version="0.91 r13725"
   sodipodi:docname="git-branch.svg">
  <metadata
     id="metadata3412">
    <rdf:RDF>
      <cc:Work
         rdf:about="">
        <dc:format>image/svg+xml</dc:format>
        <dc:type
           rdf:resource="http://purl.org/dc/dcmitype/StillImage" />
        <dc:title />
      </cc:Work>
    </rdf:RDF>
  </metadata>
  <defs
     id="defs3410" />
  <sodipodi:namedview
     pagecolor="#ffffff"
     bordercolor="#666666"
     borderopacity="1"
     objecttolerance="10"
     gridtolerance="10"
     guidetolerance="10"
     inkscape:pageopacity="0"
     inkscape:pageshadow="2"
     inkscape:window-width="1434"
     inkscape:window-height="856"
     id="namedview3408"
     showgrid="true"
     inkscape:zoom="0.63769531"
     inkscape:cx="441.53139"
     inkscape:cy="512"
     inkscape:window-x="0"
     inkscape:window-y="0"
     inkscape:window-maximized="0"
     inkscape:current-layer="svg3404">
    <inkscape:grid
       type="xygrid"
       id="grid3414" />
  </sodipodi:namedview>
  <path
     d="m 696.7144,171.42857 c -72.51677,0 -131.4286,58.87999 -131.4286,131.42856 0,48.4838 26.5681,90.42082 65.71428,113.23496 l 0,18.19362 c 0,0 0,131.42856 -131.42859,131.42856 -54.4833,0 -97.19146,11.6797 -131.42858,29.58377 l 0,-310.63452 C 407.32095,261.84937 433.8572,219.91235 433.8572,171.42857 433.8572,98.880002 374.97718,40 302.42861,40 229.88002,40 171,98.880002 171,171.42857 c 0,48.48378 26.53626,90.4208 65.71428,113.23495 l 0,430.70478 C 197.53626,738.15063 171,780.0558 171,828.57143 171,901.08818 229.88002,960 302.42861,960 c 72.54857,0 131.42859,-58.91182 131.42859,-131.42857 0,-34.39731 -13.54124,-65.45758 -35.16742,-88.9453 19.12389,-23.48774 50.216,-42.48327 100.88171,-42.48327 260.80362,0 262.85721,-262.85715 262.85721,-262.85715 l 0,-18.19362 c 39.14621,-22.81414 65.7143,-64.75116 65.7143,-113.23496 0,-72.54857 -58.91183,-131.42856 -131.4286,-131.42856 z m -394.28579,-65.7143 c 36.35437,0 65.7143,29.35991 65.7143,65.7143 0,36.35436 -29.35993,65.71428 -65.7143,65.71428 -36.35438,0 -65.71433,-29.35992 -65.71433,-65.71428 0,-36.35439 29.35995,-65.7143 65.71433,-65.7143 z m 0,788.57146 c -36.35438,0 -65.71433,-29.39174 -65.71433,-65.7143 0,-36.25785 29.35995,-65.71429 65.71433,-65.71429 36.35437,0 65.7143,29.45644 65.7143,65.71429 0,36.32256 -29.35993,65.7143 -65.7143,65.7143 z M 696.7144,368.57142 c -36.32257,0 -65.71432,-29.3599 -65.71432,-65.71429 0,-36.35437 29.39175,-65.71428 65.71432,-65.71428 36.32254,0 65.7143,29.35991 65.7143,65.71428 0,36.35439 -29.39176,65.71429 -65.7143,65.71429 z"
     id="path3406"
     inkscape:connector-curvature="0" />
</svg>
