<?xml version="1.0" encoding="UTF-8" standalone="no"?>
<svg
   xmlns:dc="http://purl.org/dc/elements/1.1/"
   xmlns:cc="http://creativecommons.org/ns#"
   xmlns:rdf="http://www.w3.org/1999/02/22-rdf-syntax-ns#"
   xmlns:svg="http://www.w3.org/2000/svg"
   xmlns="http://www.w3.org/2000/svg"
   xmlns:sodipodi="http://sodipodi.sourceforge.net/DTD/sodipodi-0.dtd"
   xmlns:inkscape="http://www.inkscape.org/namespaces/inkscape"
   height="1000"
   width="1000"
   id="svg3384"
   version="1.1"
   inkscape:version="0.91 r13725"
   sodipodi:docname="git-pull-request.svg">
  <metadata
     id="metadata3392">
    <rdf:RDF>
      <cc:Work
         rdf:about="">
        <dc:format>image/svg+xml</dc:format>
        <dc:type
           rdf:resource="http://purl.org/dc/dcmitype/StillImage" />
        <dc:title></dc:title>
      </cc:Work>
    </rdf:RDF>
  </metadata>
  <defs
     id="defs3390" />
  <sodipodi:namedview
     pagecolor="#ffffff"
     bordercolor="#666666"
     borderopacity="1"
     objecttolerance="10"
     gridtolerance="10"
     guidetolerance="10"
     inkscape:pageopacity="0"
     inkscape:pageshadow="2"
     inkscape:window-width="1445"
     inkscape:window-height="860"
     id="namedview3388"
     showgrid="true"
     showguides="false"
     inkscape:zoom="0.63769531"
     inkscape:cx="384"
     inkscape:cy="512"
     inkscape:window-x="0"
     inkscape:window-y="0"
     inkscape:window-maximized="0"
     inkscape:current-layer="svg3384">
    <inkscape:grid
       type="xygrid"
       id="grid3394" />
  </sodipodi:namedview>
  <path
     d="m 806.66667,731.91666 c 0,0 0,-293.24999 0,-385.24999 0,-92 -92,-184 -184.00001,-184 -61.33333,0 -61.33333,0 -61.33333,0 l 0,-122.66667 -183.99999,184 183.99999,184.00001 0,-122.66668 c 0,0 30.66667,0 61.33333,0 30.66667,0 61.33333,30.66667 61.33333,61.33334 0,30.66666 0,385.24999 0,385.24999 C 647.58333,753 622.66666,792.29166 622.66666,837.33334 622.66666,905.375 677.29167,960 745.33333,960 813.375,960 868,905.375 868,837.33334 868,792.29166 843.08333,753 806.66667,731.91666 Z m -61.33334,166.75001 c -33.54166,0 -61.33334,-27.79167 -61.33334,-61.33333 0,-33.54167 27.79168,-61.33333 61.33334,-61.33333 33.54167,0 61.33334,27.79166 61.33334,61.33333 0,33.54166 -27.79167,61.33333 -61.33334,61.33333 z M 254.66666,101.33333 C 186.625,101.33333 132,155.95834 132,224 c 0,45.04167 24.91666,84.33334 61.33333,105.41667 l 0,401.54166 C 156.91666,752.04166 132,791.33333 132,836.375 c 0,68.04167 54.625,122.66667 122.66666,122.66667 68.04167,0 122.66668,-54.625 122.66668,-122.66667 0,-45.04167 -24.91668,-84.33334 -61.33335,-105.41667 l 0,-401.54166 c 36.41667,-21.08333 61.33335,-60.375 61.33335,-105.41667 0,-68.04166 -54.62501,-122.66667 -122.66668,-122.66667 z m 0,797.33334 c -33.54166,0 -61.33333,-27.79167 -61.33333,-61.33333 0,-33.54167 27.79167,-61.33333 61.33333,-61.33333 33.54167,0 61.33333,27.79166 61.33333,61.33333 0,33.54166 -27.79166,61.33333 -61.33333,61.33333 z m 0,-613.33334 c -33.54166,0 -61.33333,-27.79166 -61.33333,-61.33333 0,-33.54166 27.79167,-61.33333 61.33333,-61.33333 33.54167,0 61.33333,27.79167 61.33333,61.33333 0,33.54167 -27.79166,61.33333 -61.33333,61.33333 z"
     id="path3386"
     inkscape:connector-curvature="0" />
</svg>
